<svg width="124" height="124" viewBox="0 0 124 124" fill="none" xmlns="http://www.w3.org/2000/svg">
<path d="M31.5371 52.7581C29.993 52.3073 29.0947 50.684 29.6778 49.1848C32.4056 42.1708 37.4319 36.2417 43.994 32.3759C51.3998 28.013 60.2122 26.6018 68.6586 28.426C77.105 30.2503 84.5586 35.1747 89.5201 42.2086C93.9151 48.4393 96.0658 55.9159 95.6783 63.4327C95.5954 65.0421 94.1056 66.1547 92.5102 65.9276C90.9212 65.7014 89.8309 64.2308 89.8859 62.6267C90.0938 56.5531 88.3088 50.5357 84.7563 45.4993C80.6401 39.6638 74.4565 35.5785 67.4492 34.065C60.4419 32.5516 53.131 33.7224 46.987 37.3419C41.6873 40.4641 37.5951 45.2083 35.294 50.826C34.6843 52.3145 33.0812 53.2089 31.5371 52.7581Z" fill="#1F75BF" fill-opacity="0.4"/>
<path d="M36.6365 42.8286C35.3156 41.8262 33.4193 42.0781 32.539 43.4834C28.6663 49.6657 26.8976 56.9772 27.5453 64.33C28.2817 72.6883 32.0884 80.5097 38.2334 86.2898C44.3783 92.0699 52.4274 95.4004 60.8323 95.6406C69.2373 95.8809 77.4044 93.0139 83.7626 87.5912C90.1208 82.1685 94.2211 74.5731 95.2747 66.266C96.3283 57.9589 94.2608 49.527 89.4699 42.592C84.679 35.6571 77.5031 30.7091 69.3225 28.6998C62.1297 26.9331 54.6068 27.548 47.8795 30.4045C46.3477 31.0549 45.8045 32.8984 46.6004 34.36C47.3878 35.806 49.1897 36.3294 50.7163 35.7124C56.1467 33.5176 62.1746 33.0756 67.9448 34.4929C74.6886 36.1492 80.6041 40.2282 84.5535 45.945C88.5029 51.6619 90.2073 58.6129 89.3388 65.4609C88.4702 72.3089 85.0901 78.5703 79.8487 83.0405C74.6072 87.5108 67.8746 89.8742 60.9459 89.6761C54.0172 89.4781 47.3819 86.7326 42.3162 81.9677C37.2506 77.2028 34.1124 70.7551 33.5055 63.865C32.9871 57.9808 34.346 52.1289 37.3464 47.1294C38.1997 45.7076 37.9574 43.8311 36.6365 42.8286Z" fill="#1F75BF" fill-opacity="0.7"/>
</svg>
